<svg width="32" height="32" viewBox="0 0 32 32" fill="none" xmlns="http://www.w3.org/2000/svg">
<path d="M0 16C0 7.16344 7.16344 0 16 0C24.8366 0 32 7.16344 32 16C32 24.8366 24.8366 32 16 32C7.16344 32 0 24.8366 0 16Z" fill="white" fill-opacity="0.8"/>
<g clip-path="url(#clip0_1_873)">
<path d="M21.8333 17.6667C23.075 16.45 24.3333 14.9917 24.3333 13.0833C24.3333 11.8678 23.8504 10.702 22.9909 9.84243C22.1314 8.98289 20.9656 8.5 19.75 8.5C18.2833 8.5 17.25 8.91667 16 10.1667C14.75 8.91667 13.7167 8.5 12.25 8.5C11.0344 8.5 9.86863 8.98289 9.00908 9.84243C8.14954 10.702 7.66666 11.8678 7.66666 13.0833C7.66666 15 8.91666 16.4583 10.1667 17.6667L16 23.5L21.8333 17.6667Z" stroke="#4B5563" stroke-width="2" stroke-linecap="round" stroke-linejoin="round"/>
</g>
<defs>
<clipPath id="clip0_1_873">
<rect width="20" height="20" fill="white" transform="translate(6 6)"/>
</clipPath>
</defs>
</svg>
