<svg width="40" height="40" viewBox="0 0 40 40" fill="none" xmlns="http://www.w3.org/2000/svg">
<path d="M0 20C0 8.95431 8.95431 0 20 0C31.0457 0 40 8.95431 40 20C40 31.0457 31.0457 40 20 40C8.95431 40 0 31.0457 0 20Z" fill="#ECFDF5"/>
<path d="M29.801 18C30.2577 20.2413 29.9322 22.5714 28.8789 24.6018C27.8255 26.6322 26.1079 28.24 24.0125 29.1573C21.9171 30.0746 19.5706 30.2458 17.3643 29.6424C15.158 29.0389 13.2252 27.6974 11.8883 25.8414C10.5514 23.9854 9.89113 21.7272 10.0177 19.4434C10.1442 17.1595 11.0499 14.9881 12.5837 13.2912C14.1174 11.5942 16.1866 10.4744 18.4461 10.1184C20.7056 9.76247 23.0188 10.1918 25 11.335" stroke="#059669" stroke-width="2" stroke-linecap="round" stroke-linejoin="round"/>
<path d="M17 19L20 22L30 12" stroke="#059669" stroke-width="2" stroke-linecap="round" stroke-linejoin="round"/>
</svg>
