<svg width="40" height="40" viewBox="0 0 40 40" fill="none" xmlns="http://www.w3.org/2000/svg">
<path d="M0 20C0 8.95431 8.95431 0 20 0C31.0457 0 40 8.95431 40 20C40 31.0457 31.0457 40 20 40C8.95431 40 0 31.0457 0 20Z" fill="#ECFDF5"/>
<path d="M28 21C28 26 24.5 28.5 20.34 29.95C20.1222 30.0238 19.8855 30.0202 19.67 29.94C15.5 28.5 12 26 12 21V14C12 13.7347 12.1054 13.4804 12.2929 13.2929C12.4804 13.1053 12.7348 13 13 13C15 13 17.5 11.8 19.24 10.28C19.4519 10.099 19.7214 9.99951 20 9.99951C20.2786 9.99951 20.5481 10.099 20.76 10.28C22.51 11.81 25 13 27 13C27.2652 13 27.5196 13.1053 27.7071 13.2929C27.8946 13.4804 28 13.7347 28 14V21Z" stroke="#059669" stroke-width="2" stroke-linecap="round" stroke-linejoin="round"/>
<path d="M17 20L19 22L23 18" stroke="#059669" stroke-width="2" stroke-linecap="round" stroke-linejoin="round"/>
</svg>
