<svg width="13" height="16" viewBox="0 0 13 16" fill="none" xmlns="http://www.w3.org/2000/svg">
<g clip-path="url(#clip0_1_527)">
<path d="M8.65072 14V12.6667C8.65072 11.9594 8.42285 11.2811 8.01726 10.781C7.61166 10.281 7.06156 10 6.48796 10H3.24382C2.67022 10 2.12011 10.281 1.71451 10.781C1.30892 11.2811 1.08105 11.9594 1.08105 12.6667V14" stroke="white" stroke-width="2" stroke-linecap="round" stroke-linejoin="round"/>
<path d="M4.86589 7.33333C6.06035 7.33333 7.02865 6.13943 7.02865 4.66667C7.02865 3.19391 6.06035 2 4.86589 2C3.67143 2 2.70312 3.19391 2.70312 4.66667C2.70312 6.13943 3.67143 7.33333 4.86589 7.33333Z" stroke="white" stroke-width="2" stroke-linecap="round" stroke-linejoin="round"/>
<path d="M11.8955 13.9998V12.6664C11.8952 12.0756 11.7357 11.5016 11.4421 11.0346C11.1485 10.5677 10.7374 10.2341 10.2734 10.0864" stroke="white" stroke-width="2" stroke-linecap="round" stroke-linejoin="round"/>
<path d="M8.65137 2.08643C9.11659 2.23329 9.52893 2.56689 9.82339 3.03463C10.1178 3.50237 10.2777 4.07765 10.2777 4.66976C10.2777 5.26187 10.1178 5.83715 9.82339 6.30488C9.52893 6.77262 9.11659 7.10622 8.65137 7.25309" stroke="white" stroke-width="2" stroke-linecap="round" stroke-linejoin="round"/>
</g>
<defs>
<clipPath id="clip0_1_527">
<rect width="12.9766" height="16" fill="white"/>
</clipPath>
</defs>
</svg>
