<svg width="280" height="24" viewBox="0 0 280 24" fill="none" xmlns="http://www.w3.org/2000/svg">
<path d="M18 2H15C13.6739 2 12.4021 2.52678 11.4645 3.46447C10.5268 4.40215 10 5.67392 10 7V10H7V14H10V22H14V14H17L18 10H14V7C14 6.73478 14.1054 6.48043 14.2929 6.29289C14.4804 6.10536 14.7348 6 15 6H18V2Z" stroke="black" stroke-width="2" stroke-linecap="round" stroke-linejoin="round"/>
<path d="M57 2H47C44.2386 2 42 4.23858 42 7V17C42 19.7614 44.2386 22 47 22H57C59.7614 22 62 19.7614 62 17V7C62 4.23858 59.7614 2 57 2Z" stroke="black" stroke-width="2" stroke-linecap="round" stroke-linejoin="round"/>
<path d="M56 11.3698C56.1234 12.2021 55.9812 13.052 55.5937 13.7988C55.2062 14.5456 54.5931 15.1512 53.8416 15.5295C53.0901 15.9077 52.2384 16.0394 51.4077 15.9057C50.5771 15.7721 49.8097 15.3799 49.2148 14.785C48.6199 14.1901 48.2277 13.4227 48.094 12.592C47.9604 11.7614 48.092 10.9097 48.4703 10.1582C48.8485 9.40667 49.4541 8.79355 50.2009 8.40605C50.9477 8.01856 51.7977 7.8764 52.63 7.99981C53.4789 8.1257 54.2648 8.52128 54.8716 9.12812C55.4785 9.73496 55.8741 10.5209 56 11.3698Z" stroke="black" stroke-width="2" stroke-linecap="round" stroke-linejoin="round"/>
<path d="M57.5 6.5H57.51" stroke="black" stroke-width="2" stroke-linecap="round" stroke-linejoin="round"/>
<path d="M102 4.00002C102 4.00002 101.3 6.10002 100 7.40002C101.6 17.4 90.6 24.7 82 19C84.2 19.1 86.4 18.4 88 17C83 15.5 80.5 9.60002 83 5.00002C85.2 7.60002 88.6 9.10002 92 9.00002C91.1 4.80002 96 2.40002 99 5.20002C100.1 5.20002 102 4.00002 102 4.00002Z" stroke="black" stroke-width="2" stroke-linecap="round" stroke-linejoin="round"/>
</svg>
