<svg width="24" height="24" viewBox="0 0 24 24" fill="none" xmlns="http://www.w3.org/2000/svg">
<path d="M11.525 2.29489C11.5689 2.20635 11.6366 2.13183 11.7205 2.07972C11.8044 2.02761 11.9012 2 12 2C12.0988 2 12.1956 2.02761 12.2796 2.07972C12.3635 2.13183 12.4312 2.20635 12.475 2.29489L14.785 6.97389C14.9372 7.28186 15.1618 7.5483 15.4397 7.75035C15.7175 7.95239 16.0402 8.08401 16.38 8.13389L21.546 8.88989C21.6439 8.90408 21.7359 8.94537 21.8115 9.00909C21.8872 9.07282 21.9435 9.15644 21.974 9.2505C22.0046 9.34456 22.0083 9.4453 21.9846 9.54133C21.9609 9.63736 21.9108 9.72485 21.84 9.79389L18.104 13.4319C17.8576 13.672 17.6733 13.9684 17.5669 14.2955C17.4604 14.6227 17.4351 14.9708 17.493 15.3099L18.375 20.4499C18.3923 20.5477 18.3817 20.6485 18.3445 20.7406C18.3073 20.8327 18.245 20.9125 18.1646 20.9709C18.0842 21.0293 17.989 21.0639 17.8899 21.0708C17.7908 21.0777 17.6917 21.0566 17.604 21.0099L12.986 18.5819C12.6817 18.4221 12.3432 18.3386 11.9995 18.3386C11.6559 18.3386 11.3173 18.4221 11.013 18.5819L6.39603 21.0099C6.30836 21.0563 6.20943 21.0772 6.11048 21.0701C6.01153 21.0631 5.91655 21.0285 5.83632 20.9701C5.7561 20.9118 5.69386 20.8321 5.65669 20.7401C5.61951 20.6482 5.60889 20.5476 5.62603 20.4499L6.50703 15.3109C6.56523 14.9716 6.54001 14.6233 6.43357 14.2959C6.32712 13.9686 6.14264 13.672 5.89603 13.4319L2.16003 9.79489C2.08862 9.72593 2.03802 9.63829 2.01399 9.54197C1.98996 9.44565 1.99347 9.34451 2.02411 9.25008C2.05475 9.15566 2.1113 9.07174 2.18731 9.00788C2.26332 8.94402 2.35573 8.90279 2.45403 8.88889L7.61903 8.13389C7.95929 8.08439 8.28242 7.95295 8.56061 7.75088C8.83881 7.54881 9.06373 7.28216 9.21603 6.97389L11.525 2.29489Z" stroke="#4BB4D8" stroke-width="2" stroke-linecap="round" stroke-linejoin="round"/>
</svg>
