<svg width="16" height="16" viewBox="0 0 16 16" fill="none" xmlns="http://www.w3.org/2000/svg">
<g clip-path="url(#clip0_1_547)">
<path d="M7.68335 1.53009C7.71257 1.47107 7.7577 1.42138 7.81365 1.38664C7.86961 1.3519 7.93416 1.3335 8.00002 1.3335C8.06588 1.3335 8.13043 1.3519 8.18638 1.38664C8.24234 1.42138 8.28747 1.47107 8.31669 1.53009L9.85669 4.64943C9.95814 4.85474 10.1079 5.03236 10.2931 5.16706C10.4783 5.30176 10.6934 5.3895 10.92 5.42276L14.364 5.92676C14.4293 5.93621 14.4906 5.96374 14.541 6.00622C14.5914 6.04871 14.629 6.10446 14.6494 6.16716C14.6698 6.22987 14.6722 6.29703 14.6564 6.36105C14.6406 6.42507 14.6072 6.48339 14.56 6.52943L12.0694 8.95476C11.9051 9.11483 11.7822 9.31241 11.7112 9.53051C11.6403 9.74861 11.6234 9.98068 11.662 10.2068L12.25 13.6334C12.2615 13.6987 12.2545 13.7658 12.2297 13.8272C12.2049 13.8886 12.1633 13.9418 12.1097 13.9808C12.0561 14.0197 11.9927 14.0428 11.9266 14.0474C11.8605 14.052 11.7945 14.0379 11.736 14.0068L8.65735 12.3881C8.4545 12.2816 8.22881 12.2259 7.99969 12.2259C7.77057 12.2259 7.54487 12.2816 7.34202 12.3881L4.26402 14.0068C4.20557 14.0377 4.13962 14.0516 4.07365 14.0469C4.00769 14.0422 3.94437 14.0191 3.89088 13.9802C3.8374 13.9413 3.79591 13.8882 3.77112 13.8269C3.74634 13.7656 3.73926 13.6986 3.75069 13.6334L4.33802 10.2074C4.37682 9.98125 4.36001 9.74902 4.28904 9.53079C4.21808 9.31256 4.09509 9.11486 3.93069 8.95476L1.44002 6.53009C1.39242 6.48411 1.35868 6.42569 1.34266 6.36147C1.32664 6.29726 1.32898 6.22984 1.34941 6.16689C1.36983 6.10393 1.40753 6.04799 1.4582 6.00541C1.50888 5.96284 1.57049 5.93536 1.63602 5.92609L5.07935 5.42276C5.30619 5.38976 5.52161 5.30213 5.70708 5.16742C5.89254 5.0327 6.04249 4.85494 6.14402 4.64943L7.68335 1.53009Z" stroke="#FBBF24" stroke-width="2" stroke-linecap="round" stroke-linejoin="round"/>
</g>
<defs>
<clipPath id="clip0_1_547">
<rect width="16" height="16" fill="white"/>
</clipPath>
</defs>
</svg>
