<svg width="16" height="16" viewBox="0 0 16 16" fill="none" xmlns="http://www.w3.org/2000/svg">
<path d="M2.5083 3.62354H4.00537V4.59131C4.00537 4.76133 4.06266 4.96865 4.22607 5.12646C4.38024 5.27534 4.56895 5.33246 4.75439 5.33252H5.25439C5.41685 5.33243 5.6217 5.28196 5.78271 5.12646C5.93859 4.97589 6.00342 4.78445 6.00342 4.59131V3.62354H9.99658V4.59131C9.99658 4.76129 10.054 4.96866 10.2173 5.12646C10.3715 5.27542 10.561 5.33252 10.7466 5.33252H11.2456C11.4081 5.33249 11.6128 5.282 11.7739 5.12646C11.9299 4.97588 11.9946 4.78449 11.9946 4.59131V3.62354H13.4927C13.6221 3.62362 13.7293 3.66354 13.8491 3.77002C13.9545 3.88161 13.9906 3.97647 13.9907 4.09814V5.54932H2.00928V4.09814C2.00938 3.98016 2.04981 3.87166 2.16162 3.75732C2.24981 3.66722 2.3546 3.62354 2.5083 3.62354ZM11.8784 1.99268C11.9583 2.10569 11.9937 2.23135 11.9937 2.38916L11.9839 2.26709C11.9681 2.17547 11.9341 2.08028 11.8774 1.9917L11.8784 1.99268ZM5.88721 1.99268C5.96703 2.10566 6.00244 2.23141 6.00244 2.38916L5.9917 2.26709C5.97587 2.17555 5.94286 2.08021 5.88623 1.9917L5.88721 1.99268ZM10.0093 2.26123C10.0151 2.22642 10.0247 2.19337 10.0356 2.16064C10.0247 2.19444 10.0153 2.22788 10.0093 2.26123ZM4.01709 2.26123C4.02313 2.22499 4.03375 2.19072 4.04541 2.15674C4.03382 2.19187 4.02335 2.22656 4.01709 2.26123ZM4.05713 2.11963C4.05874 2.11572 4.06032 2.11179 4.06201 2.10791C4.06041 2.11184 4.05866 2.11569 4.05713 2.11963ZM10.0483 2.11963C10.05 2.11572 10.0515 2.11179 10.0532 2.10791C10.0516 2.11184 10.0499 2.1157 10.0483 2.11963ZM4.50928 1.69873C4.54141 1.68815 4.57432 1.67921 4.60889 1.67334C4.57602 1.67935 4.54283 1.68797 4.50928 1.69873ZM10.5005 1.69873C10.5326 1.68814 10.5655 1.67922 10.6001 1.67334C10.5672 1.67936 10.534 1.68796 10.5005 1.69873Z" fill="black" stroke="#1F2937"/>
</svg>
